<svg xmlns="http://www.w3.org/2000/svg" viewBox="0 0 80 80">
  <path fill="#d4b454" d="M 37.636719 14.9375 L 37.628906 28.589844 L 37.097656 28.695312 C 36.570312 28.800781 36.074219 28.9375 35.558594 29.121094 L 35.296875 29.214844 L 30.304688 21.808594 C 27.558594 17.734375 25.304688 14.394531 25.292969 14.378906 C 25.269531 14.351562 22.304688 16.347656 22.3125 16.386719 C 22.316406 16.402344 24.535156 19.699219 27.246094 23.710938 L 32.167969 31.011719 L 32.09375 31.074219 C 31.578125 31.488281 30.851562 32.222656 30.386719 32.804688 L 30.15625 33.09375 L 30.039062 33.035156 C 29.972656 33.003906 24.605469 30.269531 18.113281 26.960938 C 11.621094 23.652344 6.132812 20.855469 5.917969 20.75 L 5.53125 20.554688 L 4.71875 22.152344 C 4.269531 23.035156 3.90625 23.757812 3.910156 23.761719 C 3.914062 23.765625 9.433594 26.578125 16.175781 30.011719 C 22.914062 33.449219 28.4375 36.265625 28.445312 36.273438 C 28.453125 36.28125 28.390625 36.523438 28.308594 36.8125 C 28.160156 37.335938 28 38.066406 28 38.214844 L 28 38.289062 L 10.484375 38.289062 L 10.484375 41.902344 L 27.996094 41.902344 L 28.015625 42.023438 C 28.070312 42.347656 28.277344 43.183594 28.386719 43.523438 C 28.453125 43.734375 28.496094 43.914062 28.480469 43.921875 C 28.460938 43.933594 22.9375 46.75 16.199219 50.183594 C 9.464844 53.613281 3.941406 56.433594 3.929688 56.445312 C 3.914062 56.460938 5.480469 59.585938 5.53125 59.640625 C 5.539062 59.648438 11.089844 56.828125 17.867188 53.375 C 24.640625 49.921875 30.199219 47.097656 30.21875 47.097656 C 30.234375 47.097656 30.363281 47.238281 30.507812 47.410156 C 30.878906 47.867188 31.355469 48.355469 31.820312 48.757812 L 32.222656 49.109375 L 32.167969 49.195312 C 32.136719 49.242188 29.910156 52.546875 27.21875 56.535156 C 24.527344 60.527344 22.320312 63.804688 22.320312 63.824219 C 22.316406 63.851562 25.210938 65.832031 25.265625 65.835938 C 25.277344 65.839844 27.539062 62.496094 30.292969 58.410156 C 33.046875 54.328125 35.316406 50.964844 35.339844 50.941406 C 35.371094 50.90625 35.449219 50.917969 35.789062 51.03125 C 36.285156 51.191406 36.824219 51.332031 37.210938 51.402344 C 37.371094 51.429688 37.53125 51.460938 37.574219 51.46875 L 37.644531 51.484375 L 37.644531 78.933594 L 41.226562 78.933594 L 41.226562 51.484375 L 41.296875 51.46875 C 41.339844 51.460938 41.496094 51.429688 41.644531 51.402344 C 42.261719 51.285156 43.03125 51.066406 43.5625 50.855469 C 43.722656 50.792969 43.851562 50.746094 43.855469 50.75 C 43.96875 50.933594 53.960938 65.746094 54 65.785156 C 54.050781 65.839844 54.125 65.792969 55.519531 64.855469 C 56.324219 64.3125 56.988281 63.855469 56.992188 63.839844 C 57 63.824219 54.746094 60.460938 51.984375 56.367188 C 49.222656 52.277344 46.957031 48.910156 46.949219 48.890625 C 46.941406 48.871094 47.066406 48.738281 47.230469 48.597656 C 47.578125 48.289062 48.171875 47.652344 48.511719 47.21875 L 48.757812 46.90625 L 49.886719 47.484375 C 56.210938 50.710938 73.757812 59.644531 73.773438 59.644531 C 73.792969 59.644531 75.402344 56.472656 75.394531 56.453125 C 75.390625 56.441406 69.773438 53.574219 62.910156 50.078125 C 54.6875 45.886719 50.4375 43.703125 50.441406 43.675781 C 50.441406 43.648438 50.5 43.449219 50.5625 43.226562 C 50.628906 43.003906 50.722656 42.621094 50.773438 42.371094 L 50.863281 41.917969 L 68.839844 41.902344 L 68.839844 38.289062 L 50.886719 38.289062 L 50.785156 37.765625 C 50.726562 37.476562 50.632812 37.070312 50.570312 36.863281 L 50.460938 36.480469 L 50.660156 36.375 C 50.765625 36.316406 56.378906 33.453125 63.128906 30.015625 C 69.878906 26.578125 75.40625 23.765625 75.410156 23.761719 C 75.425781 23.75 73.777344 20.566406 73.753906 20.570312 C 73.738281 20.574219 68.125 23.429688 61.277344 26.921875 L 48.828125 33.265625 L 48.761719 33.171875 C 48.46875 32.773438 48.097656 32.347656 47.59375 31.84375 C 47.265625 31.515625 47 31.242188 47 31.238281 C 47 31.230469 49.246094 27.898438 51.988281 23.832031 C 54.730469 19.765625 56.980469 16.421875 56.988281 16.402344 C 57.003906 16.359375 56.789062 16.207031 55.027344 15.023438 L 54.039062 14.355469 L 48.984375 21.847656 C 46.203125 25.96875 43.914062 29.335938 43.890625 29.332031 C 43.871094 29.332031 43.703125 29.269531 43.515625 29.199219 C 43.003906 29.003906 42.347656 28.8125 41.765625 28.695312 L 41.242188 28.585938 L 41.226562 1.289062 L 37.644531 1.289062 L 37.636719 14.9375 M 38.675781 32.085938 C 38 32.164062 37.519531 32.269531 36.949219 32.453125 C 35.722656 32.851562 34.699219 33.488281 33.757812 34.433594 C 31.097656 37.105469 30.691406 41.308594 32.789062 44.453125 C 35.390625 48.347656 40.722656 49.1875 44.402344 46.277344 C 45.308594 45.5625 46.054688 44.632812 46.582031 43.566406 C 47.148438 42.414062 47.394531 41.367188 47.398438 40.066406 C 47.402344 39.164062 47.316406 38.539062 47.078125 37.75 C 46.265625 35.0625 44.109375 32.988281 41.414062 32.304688 C 40.726562 32.132812 40.386719 32.089844 39.566406 32.078125 C 39.140625 32.074219 38.738281 32.078125 38.675781 32.085938"/>
</svg>
